<mxfile host="app.diagrams.net" modified="2022-03-30T07:00:23.417Z" agent="5.0 (Macintosh; Intel Mac OS X 10_15_7) AppleWebKit/605.1.15 (KHTML, like Gecko) Version/15.4 Safari/605.1.15" etag="eSmPzZX26Zc3qQMj6VEy" version="17.2.4" type="github">
  <diagram id="C5RBs43oDa-KdzZeNtuy" name="Page-1">
    <mxGraphModel dx="655" dy="483" grid="1" gridSize="10" guides="1" tooltips="1" connect="1" arrows="1" fold="1" page="1" pageScale="1" pageWidth="827" pageHeight="1169" math="0" shadow="0">
      <root>
        <mxCell id="WIyWlLk6GJQsqaUBKTNV-0" />
        <mxCell id="WIyWlLk6GJQsqaUBKTNV-1" parent="WIyWlLk6GJQsqaUBKTNV-0" />
        <mxCell id="WIyWlLk6GJQsqaUBKTNV-2" value="Acc [3]" style="rounded=0;html=1;jettySize=auto;orthogonalLoop=1;fontSize=12;endArrow=block;endFill=0;endSize=8;strokeWidth=1;shadow=0;labelBackgroundColor=default;edgeStyle=orthogonalEdgeStyle;exitX=0;exitY=0.25;exitDx=0;exitDy=0;entryX=0.25;entryY=0;entryDx=0;entryDy=0;" parent="WIyWlLk6GJQsqaUBKTNV-1" source="1ziSc8JjKAgWgZRkjLOo-1" target="TaxYCBOCnqEkSOiOwnqh-9" edge="1">
          <mxGeometry relative="1" as="geometry">
            <mxPoint x="450" y="110" as="sourcePoint" />
            <mxPoint x="280" y="220" as="targetPoint" />
            <Array as="points" />
          </mxGeometry>
        </mxCell>
        <mxCell id="TaxYCBOCnqEkSOiOwnqh-1" value="Quat [4]" style="edgeStyle=orthogonalEdgeStyle;rounded=0;orthogonalLoop=1;jettySize=auto;html=1;exitX=0;exitY=0.75;exitDx=0;exitDy=0;labelBackgroundColor=default;endArrow=block;endFill=0;endSize=8;strokeWidth=1;shadow=0;fontSize=12;entryX=0.75;entryY=0;entryDx=0;entryDy=0;" parent="WIyWlLk6GJQsqaUBKTNV-1" source="1ziSc8JjKAgWgZRkjLOo-1" edge="1" target="TaxYCBOCnqEkSOiOwnqh-9">
          <mxGeometry relative="1" as="geometry">
            <mxPoint x="370" y="240" as="targetPoint" />
            <mxPoint as="offset" />
          </mxGeometry>
        </mxCell>
        <mxCell id="1ziSc8JjKAgWgZRkjLOo-0" value="in.csv" style="shape=parallelogram;perimeter=parallelogramPerimeter;whiteSpace=wrap;html=1;fixedSize=1;fontSize=12;" parent="WIyWlLk6GJQsqaUBKTNV-1" vertex="1">
          <mxGeometry x="280" y="80" width="120" height="40" as="geometry" />
        </mxCell>
        <mxCell id="1ziSc8JjKAgWgZRkjLOo-1" value="extract" style="triangle;whiteSpace=wrap;html=1;rotation=0;horizontal=1;verticalAlign=middle;direction=north;fontSize=12;" parent="WIyWlLk6GJQsqaUBKTNV-1" vertex="1">
          <mxGeometry x="280" y="160" width="120" height="40" as="geometry" />
        </mxCell>
        <mxCell id="TaxYCBOCnqEkSOiOwnqh-7" value="" style="endArrow=block;html=1;rounded=0;shadow=0;labelBackgroundColor=default;fontFamily=Helvetica;fontSize=12;fontColor=default;endSize=8;strokeColor=default;strokeWidth=1;shape=connector;endFill=0;" parent="WIyWlLk6GJQsqaUBKTNV-1" source="1ziSc8JjKAgWgZRkjLOo-0" target="1ziSc8JjKAgWgZRkjLOo-1" edge="1">
          <mxGeometry width="50" height="50" relative="1" as="geometry">
            <mxPoint x="390" y="200" as="sourcePoint" />
            <mxPoint x="440" y="150" as="targetPoint" />
          </mxGeometry>
        </mxCell>
        <mxCell id="TaxYCBOCnqEkSOiOwnqh-9" value="rotate" style="whiteSpace=wrap;html=1;fontFamily=Helvetica;fontSize=12;fontColor=default;" parent="WIyWlLk6GJQsqaUBKTNV-1" vertex="1">
          <mxGeometry x="280" y="240" width="120" height="40" as="geometry" />
        </mxCell>
        <mxCell id="TaxYCBOCnqEkSOiOwnqh-10" value="GlbAcc [3]" style="endArrow=none;html=1;rounded=0;shadow=0;labelBackgroundColor=default;fontFamily=Helvetica;fontSize=12;fontColor=default;endSize=8;strokeColor=default;strokeWidth=1;shape=connector;endFill=0;" parent="WIyWlLk6GJQsqaUBKTNV-1" source="TaxYCBOCnqEkSOiOwnqh-9" target="TaxYCBOCnqEkSOiOwnqh-11" edge="1">
          <mxGeometry width="50" height="50" relative="1" as="geometry">
            <mxPoint x="430" y="310" as="sourcePoint" />
            <mxPoint x="440" y="310" as="targetPoint" />
          </mxGeometry>
        </mxCell>
        <mxCell id="TaxYCBOCnqEkSOiOwnqh-11" value="interpolate" style="rounded=0;whiteSpace=wrap;html=1;fontFamily=Helvetica;fontSize=12;fontColor=default;" parent="WIyWlLk6GJQsqaUBKTNV-1" vertex="1">
          <mxGeometry x="300" y="320" width="80" height="40" as="geometry" />
        </mxCell>
        <mxCell id="xzDUrT5w21DEfDvtfl02-2" value="" style="endArrow=none;html=1;rounded=0;fontSize=12;shadow=0;endSize=8;strokeWidth=1;endFill=0;" edge="1" parent="WIyWlLk6GJQsqaUBKTNV-1" source="TaxYCBOCnqEkSOiOwnqh-11" target="xzDUrT5w21DEfDvtfl02-3">
          <mxGeometry width="50" height="50" relative="1" as="geometry">
            <mxPoint x="380" y="320" as="sourcePoint" />
            <mxPoint x="410" y="370" as="targetPoint" />
          </mxGeometry>
        </mxCell>
        <mxCell id="xzDUrT5w21DEfDvtfl02-32" value="" style="edgeStyle=orthogonalEdgeStyle;rounded=0;orthogonalLoop=1;jettySize=auto;html=1;fontSize=12;endArrow=block;shadow=0;endSize=8;strokeWidth=1;endFill=0;" edge="1" parent="WIyWlLk6GJQsqaUBKTNV-1" source="xzDUrT5w21DEfDvtfl02-3" target="xzDUrT5w21DEfDvtfl02-31">
          <mxGeometry relative="1" as="geometry" />
        </mxCell>
        <mxCell id="xzDUrT5w21DEfDvtfl02-3" value="Acc filter&amp;nbsp;" style="whiteSpace=wrap;html=1;fontSize=12;" vertex="1" parent="WIyWlLk6GJQsqaUBKTNV-1">
          <mxGeometry x="300" y="380" width="80" height="40" as="geometry" />
        </mxCell>
        <mxCell id="xzDUrT5w21DEfDvtfl02-6" value="" style="endArrow=block;html=1;rounded=0;fontSize=12;shadow=0;endSize=8;strokeWidth=1;endFill=0;edgeStyle=orthogonalEdgeStyle;" edge="1" parent="WIyWlLk6GJQsqaUBKTNV-1" source="xzDUrT5w21DEfDvtfl02-33" target="xzDUrT5w21DEfDvtfl02-7">
          <mxGeometry width="50" height="50" relative="1" as="geometry">
            <mxPoint x="500" y="120" as="sourcePoint" />
            <mxPoint x="240" y="400" as="targetPoint" />
            <Array as="points">
              <mxPoint x="500" y="160" />
              <mxPoint x="540" y="160" />
            </Array>
          </mxGeometry>
        </mxCell>
        <mxCell id="xzDUrT5w21DEfDvtfl02-7" value="integrate" style="whiteSpace=wrap;html=1;fontSize=12;" vertex="1" parent="WIyWlLk6GJQsqaUBKTNV-1">
          <mxGeometry x="500" y="180" width="80" height="40" as="geometry" />
        </mxCell>
        <mxCell id="xzDUrT5w21DEfDvtfl02-9" value="" style="endArrow=block;html=1;rounded=0;fontSize=12;shadow=0;endSize=8;strokeWidth=1;endFill=0;edgeStyle=orthogonalEdgeStyle;" edge="1" parent="WIyWlLk6GJQsqaUBKTNV-1" source="xzDUrT5w21DEfDvtfl02-33">
          <mxGeometry width="50" height="50" relative="1" as="geometry">
            <mxPoint x="500" y="160" as="sourcePoint" />
            <mxPoint x="460" y="460" as="targetPoint" />
            <Array as="points">
              <mxPoint x="500" y="160" />
              <mxPoint x="460" y="160" />
            </Array>
          </mxGeometry>
        </mxCell>
        <mxCell id="xzDUrT5w21DEfDvtfl02-23" value="GlbAcc [3]" style="edgeLabel;html=1;align=center;verticalAlign=middle;resizable=0;points=[];fontSize=12;" vertex="1" connectable="0" parent="xzDUrT5w21DEfDvtfl02-9">
          <mxGeometry x="0.8061" y="2" relative="1" as="geometry">
            <mxPoint x="-2" y="-37" as="offset" />
          </mxGeometry>
        </mxCell>
        <mxCell id="xzDUrT5w21DEfDvtfl02-10" value="" style="endArrow=none;html=1;rounded=0;fontSize=12;shadow=0;endSize=8;strokeWidth=1;endFill=0;" edge="1" parent="WIyWlLk6GJQsqaUBKTNV-1" target="xzDUrT5w21DEfDvtfl02-11" source="xzDUrT5w21DEfDvtfl02-7">
          <mxGeometry width="50" height="50" relative="1" as="geometry">
            <mxPoint x="540" y="220" as="sourcePoint" />
            <mxPoint x="610" y="230" as="targetPoint" />
          </mxGeometry>
        </mxCell>
        <mxCell id="xzDUrT5w21DEfDvtfl02-11" value="Vel filter" style="whiteSpace=wrap;html=1;fontSize=12;" vertex="1" parent="WIyWlLk6GJQsqaUBKTNV-1">
          <mxGeometry x="500" y="240" width="80" height="40" as="geometry" />
        </mxCell>
        <mxCell id="xzDUrT5w21DEfDvtfl02-12" value="" style="endArrow=block;html=1;rounded=0;fontSize=12;shadow=0;endSize=8;strokeWidth=1;endFill=0;edgeStyle=orthogonalEdgeStyle;" edge="1" parent="WIyWlLk6GJQsqaUBKTNV-1" source="xzDUrT5w21DEfDvtfl02-11" target="xzDUrT5w21DEfDvtfl02-13">
          <mxGeometry width="50" height="50" relative="1" as="geometry">
            <mxPoint x="550" y="230" as="sourcePoint" />
            <mxPoint x="540" y="340" as="targetPoint" />
          </mxGeometry>
        </mxCell>
        <mxCell id="xzDUrT5w21DEfDvtfl02-13" value="integrate" style="whiteSpace=wrap;html=1;fontSize=12;" vertex="1" parent="WIyWlLk6GJQsqaUBKTNV-1">
          <mxGeometry x="540" y="320" width="80" height="40" as="geometry" />
        </mxCell>
        <mxCell id="xzDUrT5w21DEfDvtfl02-14" value="" style="endArrow=block;html=1;rounded=0;fontSize=12;shadow=0;endSize=8;strokeWidth=1;endFill=0;edgeStyle=orthogonalEdgeStyle;" edge="1" parent="WIyWlLk6GJQsqaUBKTNV-1" source="xzDUrT5w21DEfDvtfl02-11">
          <mxGeometry width="50" height="50" relative="1" as="geometry">
            <mxPoint x="540" y="300" as="sourcePoint" />
            <mxPoint x="500" y="460" as="targetPoint" />
            <Array as="points">
              <mxPoint x="540" y="300" />
              <mxPoint x="500" y="300" />
            </Array>
          </mxGeometry>
        </mxCell>
        <mxCell id="xzDUrT5w21DEfDvtfl02-24" value="GlbVel [3]" style="edgeLabel;html=1;align=center;verticalAlign=middle;resizable=0;points=[];fontSize=12;" vertex="1" connectable="0" parent="xzDUrT5w21DEfDvtfl02-14">
          <mxGeometry x="0.3857" y="3" relative="1" as="geometry">
            <mxPoint x="-3" y="21" as="offset" />
          </mxGeometry>
        </mxCell>
        <mxCell id="xzDUrT5w21DEfDvtfl02-16" value="" style="endArrow=none;html=1;rounded=0;fontSize=12;shadow=0;endSize=8;strokeWidth=1;endFill=0;" edge="1" parent="WIyWlLk6GJQsqaUBKTNV-1" target="xzDUrT5w21DEfDvtfl02-17" source="xzDUrT5w21DEfDvtfl02-13">
          <mxGeometry width="50" height="50" relative="1" as="geometry">
            <mxPoint x="580" y="360" as="sourcePoint" />
            <mxPoint x="650" y="370" as="targetPoint" />
          </mxGeometry>
        </mxCell>
        <mxCell id="xzDUrT5w21DEfDvtfl02-17" value="Pos filter" style="whiteSpace=wrap;html=1;fontSize=12;" vertex="1" parent="WIyWlLk6GJQsqaUBKTNV-1">
          <mxGeometry x="540" y="380" width="80" height="40" as="geometry" />
        </mxCell>
        <mxCell id="xzDUrT5w21DEfDvtfl02-18" value="" style="endArrow=block;html=1;rounded=0;fontSize=12;shadow=0;endSize=8;strokeWidth=1;endFill=0;snapToPoint=0;" edge="1" parent="WIyWlLk6GJQsqaUBKTNV-1" source="xzDUrT5w21DEfDvtfl02-17">
          <mxGeometry width="50" height="50" relative="1" as="geometry">
            <mxPoint x="590" y="390" as="sourcePoint" />
            <mxPoint x="580" y="460" as="targetPoint" />
          </mxGeometry>
        </mxCell>
        <mxCell id="xzDUrT5w21DEfDvtfl02-25" value="GlbPos [3]" style="edgeLabel;html=1;align=center;verticalAlign=middle;resizable=0;points=[];fontSize=12;" vertex="1" connectable="0" parent="xzDUrT5w21DEfDvtfl02-18">
          <mxGeometry x="-0.0333" y="1" relative="1" as="geometry">
            <mxPoint x="-1" y="1" as="offset" />
          </mxGeometry>
        </mxCell>
        <mxCell id="xzDUrT5w21DEfDvtfl02-30" value="" style="rounded=0;orthogonalLoop=1;jettySize=auto;html=1;fontSize=12;endArrow=block;shadow=0;endSize=8;strokeWidth=1;endFill=0;" edge="1" parent="WIyWlLk6GJQsqaUBKTNV-1" source="xzDUrT5w21DEfDvtfl02-26" target="xzDUrT5w21DEfDvtfl02-28">
          <mxGeometry relative="1" as="geometry" />
        </mxCell>
        <mxCell id="xzDUrT5w21DEfDvtfl02-26" value="concat" style="triangle;whiteSpace=wrap;html=1;fontSize=12;direction=south;snapToPoint=1;" vertex="1" parent="WIyWlLk6GJQsqaUBKTNV-1">
          <mxGeometry x="440" y="460" width="160" height="40" as="geometry" />
        </mxCell>
        <mxCell id="xzDUrT5w21DEfDvtfl02-28" value="out.csv" style="shape=parallelogram;perimeter=parallelogramPerimeter;whiteSpace=wrap;html=1;fixedSize=1;fontSize=12;" vertex="1" parent="WIyWlLk6GJQsqaUBKTNV-1">
          <mxGeometry x="460" y="520" width="120" height="40" as="geometry" />
        </mxCell>
        <mxCell id="xzDUrT5w21DEfDvtfl02-31" value="1" style="ellipse;whiteSpace=wrap;html=1;aspect=fixed;fontSize=12;labelBackgroundColor=default;" vertex="1" parent="WIyWlLk6GJQsqaUBKTNV-1">
          <mxGeometry x="320" y="460" width="40" height="40" as="geometry" />
        </mxCell>
        <mxCell id="xzDUrT5w21DEfDvtfl02-33" value="1" style="ellipse;whiteSpace=wrap;html=1;aspect=fixed;fontSize=12;labelBackgroundColor=default;" vertex="1" parent="WIyWlLk6GJQsqaUBKTNV-1">
          <mxGeometry x="480" y="100" width="40" height="40" as="geometry" />
        </mxCell>
      </root>
    </mxGraphModel>
  </diagram>
</mxfile>
